<svg style="object-fit:cover" id="my-svg" version="1" baseProfile="full" width="100%" height="100%" viewBox="0 0 1538 741" xmlns="http://www.w3.org/2000/svg"><rect width="1538" height="741" fill="#000000"/><defs><linearGradient id="linear-gradient" x1="0" x2="1" y1="0" y2="1"><stop offset="0%" stop-color="#c81d1190"/><stop offset="100%" stop-color="#1c39bb90"/></linearGradient></defs><path transform="scale(1, 1)" style="transform-origin:center" d="M 0,741 V 0,441 C 133.5595238095238,469.25 267.1190476190476,497.5 396,500 C 524.8809523809524,502.5 649.0833333333333,479.25000000000006 757,478 C 864.9166666666667,476.74999999999994 956.547619047619,497.5 1084,495 C 1211.452380952381,492.5 1374.7261904761904,466.75 1538,441 C 1538,441 1538,741 1538,741 Z" stroke="none" stroke-width="0" fill="url(#linear-gradient)" class="transition-all duration-300 ease-in-out delay-150"/><defs><linearGradient id="linear-gradient" x1="0" x2="1" y1="0" y2="1"><stop offset="0%" stop-color="#c81d11ff"/><stop offset="100%" stop-color="#1c39bbff"/></linearGradient></defs><path transform="scale(1, 1)" style="transform-origin:center" d="M 0,741 V 0,661 C 119.84523809523813,670.1071428571429 239.69047619047626,679.2142857142857 382,708 C 524.3095238095237,736.7857142857143 689.0833333333331,785.25 831,797 C 972.9166666666669,808.75 1091.9761904761906,783.7857142857143 1206,755 C 1320.0238095238094,726.2142857142857 1429.0119047619046,693.6071428571429 1538,661 C 1538,661 1538,741 1538,741 Z" stroke="none" stroke-width="0" fill="url(#linear-gradient)" class="transition-all duration-300 ease-in-out delay-150"/></svg>