<!--?xml version="1.0" standalone="no"?-->
              <svg id="sw-js-blob-svg" viewBox="0 0 100 100" xmlns="http://www.w3.org/2000/svg" version="1.1">
                    <defs> 
                        <linearGradient id="sw-gradient" x1="0" x2="1" y1="1" y2="0">
                            <stop id="stop1" stop-color="rgba(0, 0, 0, 1)" offset="0%"></stop>
                            <stop id="stop2" stop-color="rgba(237.817, 237.817, 237.817, 1)" offset="100%"></stop>
                        </linearGradient>
                    </defs>
                <path fill="none" d="M9.7,-18.2C13,-14.9,16.4,-13.2,17.8,-10.4C19.2,-7.6,18.6,-3.8,20,0.8C21.4,5.4,24.8,10.8,25.9,18C27.1,25.2,26,34.2,21.3,38.4C16.6,42.6,8.3,42.1,1.7,39.2C-5,36.3,-9.9,31,-12.5,25.6C-15.1,20.2,-15.4,14.6,-16,10.3C-16.7,6,-17.7,3,-22,-2.5C-26.3,-8,-33.9,-16,-32.8,-19.4C-31.7,-22.9,-21.8,-21.9,-14.9,-23.1C-8,-24.3,-4,-27.7,-0.4,-27C3.2,-26.3,6.4,-21.5,9.7,-18.2Z" width="100%" height="100%" transform="translate(50 50)" stroke-width="1" style="transition: all 0.3s ease 0s;" stroke="url(#sw-gradient)"></path>
              </svg>