<svg style="object-fit:cover" id="my-svg" version="1" baseProfile="full" width="100%" height="100%" viewBox="0 0 1538 741" xmlns="http://www.w3.org/2000/svg"><rect width="1538" height="741" fill="#000"/><defs><linearGradient id="linear-gradient" x1="0.5" x2="0.5" y1="0" y2="1"><stop offset="0%" stop-color="#b06d6950"/><stop offset="100%" stop-color="#1c39bb50"/></linearGradient></defs><path transform="scale(1, 1)" d="M 0,741 V 0,518 C 68.41520668727816,526.1697011336311 136.83041337455631,534.3394022672621 224,499 C 311.1695866254437,463.6605977327378 417.09355318905295,384.81209206458254 519,405 C 620.906446810947,425.18790793541746 718.7953738692318,544.4122294744074 807,618 C 895.2046261307682,691.5877705255926 973.7249513340205,719.5389900377877 1045,647 C 1116.2750486659795,574.4610099622123 1180.3048207946865,401.43181037444185 1285,327 C 1389.6951792053135,252.56818962555818 1535.0557654872323,276.7337684644452 1584,325 C 1632.9442345127677,373.2662315355548 1585.4721172563839,445.63311576777744 1538,518 C 1538,518 1538,741 1538,741 Z" stroke="none" stroke-width="0" fill="url(#linear-gradient)" class="transition-all duration-300 ease-in-out delay-150" style="transform-origin: center center;"/><defs><linearGradient id="linear-gradient" x1="0.5" x2="0.5" y1="0" y2="1"><stop offset="0%" stop-color="#b06d6960"/><stop offset="100%" stop-color="#1c39bb60"/></linearGradient></defs><path transform="scale(1, 1)" d="M 0,741 V 0,778 C 56.65842207717853,826.6004809343867 113.31684415435706,875.2009618687736 212,873 C 310.68315584564294,870.7990381312264 451.39104545975033,817.7966334592924 534,824 C 616.6089545402497,830.2033665407076 641.1189740066416,895.612504294057 721,941 C 800.8810259933584,986.387495705943 936.1330585136836,1011.7533493644796 1026,942 C 1115.8669414863164,872.2466506355204 1160.3487919386237,707.3740982480247 1254,696 C 1347.6512080613763,684.6259017519753 1490.471773731822,826.7502576434215 1546,866 C 1601.528226268178,905.2497423565785 1569.764113134089,841.6248711782893 1538,778 C 1538,778 1538,741 1538,741 Z" stroke="none" stroke-width="0" fill="url(#linear-gradient)" class="transition-all duration-300 ease-in-out delay-150" style="transform-origin: center center;"/><defs><linearGradient id="linear-gradient" x1="0.5" x2="0.5" y1="0" y2="1"><stop offset="0%" stop-color="#b06d6970"/><stop offset="100%" stop-color="#1c39bb70"/></linearGradient></defs><path transform="scale(1, 1)" d="M 0,741 V 0,1167 C 57.772815756326565,1280.8790793541739 115.54563151265313,1394.7581587083478 216,1350 C 316.45436848734687,1305.2418412916522 459.590289705714,1101.8464445207833 547,1034 C 634.409710294286,966.1535554792168 666.0932096644909,1033.8560632085193 738,1112 C 809.9067903355091,1190.1439367914807 922.0368716363218,1278.7293026451391 1025,1340 C 1127.9631283636782,1401.2706973548609 1221.759303790221,1435.2267262109242 1318,1343 C 1414.240696209779,1250.7732737890758 1512.925913202794,1032.3637925111645 1550,982 C 1587.074086797206,931.6362074888355 1562.5370433986031,1049.3181037444178 1538,1167 C 1538,1167 1538,741 1538,741 Z" stroke="none" stroke-width="0" fill="url(#linear-gradient)" class="transition-all duration-300 ease-in-out delay-150" style="transform-origin: center center;"/><defs><linearGradient id="linear-gradient" x1="0.5" x2="0.5" y1="0" y2="1"><stop offset="0%" stop-color="#b06d6980"/><stop offset="100%" stop-color="#1c39bb80"/></linearGradient></defs><path transform="scale(1, 1)" d="M 0,741 V 0,1750 C 97.79892362303903,1660.1930608038474 195.59784724607806,1570.386121607695 289,1583 C 382.40215275392194,1595.613878392305 471.4075346387267,1710.6485743730675 553,1730 C 634.5924653612733,1749.3514256269325 708.7720141990151,1673.0195809000343 800,1670 C 891.2279858009849,1666.9804190999657 999.5044085652125,1737.273102026795 1069,1763 C 1138.4955914347875,1788.726897973205 1169.210351540135,1769.888010992786 1253,1774 C 1336.789648459865,1778.111989007214 1473.6541852742473,1805.1748540020612 1530,1805 C 1586.3458147257527,1804.8251459979388 1562.1729073628762,1777.4125729989694 1538,1750 C 1538,1750 1538,741 1538,741 Z" stroke="none" stroke-width="0" fill="url(#linear-gradient)" class="transition-all duration-300 ease-in-out delay-150" style="transform-origin: center center;"/><defs><linearGradient id="linear-gradient" x1="0.5" x2="0.5" y1="0" y2="1"><stop offset="0%" stop-color="#b06d6990"/><stop offset="100%" stop-color="#1c39bb90"/></linearGradient></defs><path transform="scale(1, 1)" d="M 0,741 V 0,2625 C 84.99301500057254,2628.844039848849 169.98603000114508,2632.6880796976984 270,2660 C 370.0139699988549,2687.3119203023016 485.0488949959922,2738.0917210580556 559,2734 C 632.9511050040078,2729.9082789419444 665.8183900148861,2670.945036070079 728,2677 C 790.1816099851139,2683.054963929921 881.6775449444635,2754.1281346616283 984,2777 C 1086.3224550555365,2799.8718653383717 1199.4714302072598,2774.542425283408 1299,2777 C 1398.5285697927402,2779.457574716592 1484.436734226497,2809.7021642047403 1522,2789 C 1559.563265773503,2768.2978357952597 1548.7816328867516,2696.64891789763 1538,2625 C 1538,2625 1538,741 1538,741 Z" stroke="none" stroke-width="0" fill="url(#linear-gradient)" class="transition-all duration-300 ease-in-out delay-150" style="transform-origin: center center;"/><defs><linearGradient id="linear-gradient" x1="0.5" x2="0.5" y1="0" y2="1"><stop offset="0%" stop-color="#b06d69ff"/><stop offset="100%" stop-color="#1c39bbff"/></linearGradient></defs><path transform="scale(1, 1)" d="M 0,741 V 0,3938 C 99.75838772472233,3948.3916180006872 199.51677544944465,3958.783236001374 276,3932 C 352.48322455055535,3905.216763998626 405.6912859269438,3841.2586739951903 485,3873 C 564.3087140730562,3904.7413260048097 669.7180808427802,4032.182068017864 766,4051 C 862.2819191572198,4069.817931982136 949.4363907019354,3980.013053933356 1043,3924 C 1136.5636092980646,3867.986946066644 1236.536356349479,3845.765716248712 1327,3851 C 1417.463643650521,3856.234283751288 1498.418183900149,3888.924081071797 1532,3908 C 1565.581816099851,3927.075918928203 1551.7909080499255,3932.5379594641017 1538,3938 C 1538,3938 1538,741 1538,741 Z" stroke="none" stroke-width="0" fill="url(#linear-gradient)" class="transition-all duration-300 ease-in-out delay-150" style="transform-origin: center center;"/></svg>